<svg xmlns="http://www.w3.org/2000/svg" viewBox="0 0 43.204 69.004" role="img" class="stardust-icon stardust-icon-zoom"><path fill-rule="evenodd" stroke-linecap="round" stroke-width=".945" d="M33.603 32.802a31.686 31.686 0 0 0 .79-.423c2.107-1.169 3.051-2.091 4.378-4.03a32.68 32.68 0 0 0 .032-.047c1.9-2.9 2.8-6.1 2.8-9.7 0-10.8-8.2-18.6-19.6-18.6-11.335 0-19.479 7.414-19.976 17.97a21.882 21.882 0 0 0-.024 1.03 17.926 17.926 0 0 0 1.016 6.155 13.457 13.457 0 0 0 6.884 7.645C4.606 35.049 1.434 38.971.389 44.62a24.628 24.628 0 0 0-.386 4.482c0 11.8 8.7 19.9 21.4 19.9a24.237 24.237 0 0 0 11.074-2.514c6.306-3.218 10.335-9.304 10.699-16.947a23.948 23.948 0 0 0 .027-1.139 20.81 20.81 0 0 0-.846-6.134c-1.294-4.206-4.073-7.299-8.337-9.278a20.642 20.642 0 0 0-.417-.188zm-11.9 6.1c4.9 0 9.1 4.2 9.1 9.3 0 5.1-4.1 9.2-9.2 9.2a9.644 9.644 0 0 1-5.269-1.484c-2.255-1.453-3.734-3.872-3.991-6.794a10.51 10.51 0 0 1-.04-.922 9.237 9.237 0 0 1 2.404-6.318c1.703-1.853 4.18-2.982 6.996-2.982zm.2-27.9c4.5 0 8.4 3.8 8.4 8.2 0 4.4-4 8.2-8.5 8.2-4.6 0-8.2-3.7-8.2-8.4a7.892 7.892 0 0 1 1.919-5.273c1.232-1.404 2.986-2.353 5.055-2.638a9.726 9.726 0 0 1 1.326-.089z"/></svg>