<svg xmlns="http://www.w3.org/2000/svg" viewBox="0 0 42.8 67.6" role="img" class="stardust-icon stardust-icon-zoom"><path fill-rule="evenodd" stroke-linecap="round" stroke-width=".945" d="M15.2 11.6h22.3V0h-34v39.5h8.4a13.796 13.796 0 0 1 2.081-2.256A9.364 9.364 0 0 1 20.4 35c5.6 0 9.9 4.5 9.9 10.3 0 5.8-4.3 10.2-9.8 10.2a9.594 9.594 0 0 1-3.975-.775c-2.283-1.024-3.971-3.081-5.231-6.281a22.17 22.17 0 0 1-.094-.244L0 52.4a62.066 62.066 0 0 0 .565 1.425c1.46 3.548 2.682 5.38 4.659 7.484a37.124 37.124 0 0 0 .276.291 21.422 21.422 0 0 0 13.729 5.945 25.179 25.179 0 0 0 1.671.055 21.976 21.976 0 0 0 13.258-4.2c4.31-3.202 7.279-8.057 8.275-13.942A26.715 26.715 0 0 0 42.8 45c0-11.9-8.3-20.9-19.4-20.9a20.186 20.186 0 0 0-2.2.112c-1.856.203-3.576.691-5.716 1.57a41.606 41.606 0 0 0-.284.118V11.6z"/></svg>