<svg xmlns="http://www.w3.org/2000/svg" viewBox="0 0 43.503 67.701" role="img" class="stardust-icon stardust-icon-zoom"><path fill-rule="evenodd" stroke-linecap="round" stroke-width=".945" d="M5.501 67.701h14.4l16.4-26.1c4.512-7.165 6.676-12.531 7.115-17.896a25.743 25.743 0 0 0 .085-2.104c0-11.759-8.183-20.64-19.519-21.527a24.115 24.115 0 0 0-1.881-.073c-12.5 0-22.1 9.5-22.1 22 0 11.3 8.3 19.9 19.3 19.9.851 0 1.523-.089 2.777-.352a55.135 55.135 0 0 0 .223-.048l-16.8 26.2zm25.797-46.447a9.47 9.47 0 0 0-9.297-9.353 10.339 10.339 0 0 0-.503.013 9.524 9.524 0 0 0-9.197 9.487c0 5.4 4.1 9.6 9.4 9.6 2.785 0 5.25-1.09 6.985-2.886a9.421 9.421 0 0 0 2.615-6.614 10.005 10.005 0 0 0-.003-.247z" vector-effect="non-scaling-stroke"/></svg>