<svg xmlns="http://www.w3.org/2000/svg" viewBox="0 0 41.701 69.001" role="img" class="stardust-icon stardust-icon-zoom"><path fill-rule="evenodd" stroke-linecap="round" stroke-width=".945" d="M.001 23.201v21.3a86.087 86.087 0 0 0 .141 5.239c.24 3.911.8 6.807 1.788 9.131a13.986 13.986 0 0 0 3.071 4.53c3.183 3.183 8.009 5.116 13.716 5.52a32.308 32.308 0 0 0 2.284.08 27.934 27.934 0 0 0 6.391-.693c2.999-.704 5.593-1.942 7.767-3.697a17.608 17.608 0 0 0 1.042-.91 16.219 16.219 0 0 0 4.725-8.397c.365-1.533.594-3.225.702-5.11a47.264 47.264 0 0 0 .073-2.693v-25.9c0-4.153-.458-7.389-1.5-10.073a15.929 15.929 0 0 0-4.5-6.327A20.063 20.063 0 0 0 26.805.689a27.077 27.077 0 0 0-6.204-.688c-6.7 0-12.5 2.2-16.1 6.2C1.536 9.443.202 13.886.022 21.359a76.328 76.328 0 0 0-.021 1.842zm29.1-.6v23.2a49.403 49.403 0 0 1-.043 2.168c-.07 1.589-.23 2.783-.497 3.768a8.197 8.197 0 0 1-.86 2.064 7.193 7.193 0 0 1-3.81 2.919 8.858 8.858 0 0 1-2.89.481 8.941 8.941 0 0 1-5.066-1.538 6.167 6.167 0 0 1-1.634-1.662 8.307 8.307 0 0 1-.297-.421c-.937-1.425-1.103-2.85-1.103-7.679v-22.7c0-2.681.162-4.465.54-5.847a8.234 8.234 0 0 1 .86-2.053c1.2-2.1 3.7-3.3 6.7-3.3a9.192 9.192 0 0 1 3.315.591 7.04 7.04 0 0 1 2.785 1.909 6.754 6.754 0 0 1 1.558 2.985c.316 1.252.442 2.856.442 5.115z"/></svg>