<svg xmlns="http://www.w3.org/2000/svg" viewBox="0 0 43.402 67.6" role="img" class="stardust-icon stardust-icon-zoom"><path fill-rule="evenodd" stroke-linecap="round" stroke-width=".945" d="M38.501 0h-14.6l-16.6 26.2a87.112 87.112 0 0 0-2.841 4.806C1.956 35.606.636 39.352.184 43.098A25.786 25.786 0 0 0 .001 46.2c0 11.983 8.875 21.071 20.561 21.391a23.329 23.329 0 0 0 .639.009c12.3 0 22.2-9.9 22.2-22.2a20.356 20.356 0 0 0-5.04-13.557 17.916 17.916 0 0 0-13.46-6.143c-1.043 0-1.817.09-3.26.526a26.98 26.98 0 0 0-.24.074L38.501 0zm-7.326 44.352a9.309 9.309 0 0 0-9.274-8.052 10.442 10.442 0 0 0-.638.019A9.653 9.653 0 0 0 12.101 46a10.844 10.844 0 0 0 .031.817c.196 2.596 1.324 4.831 3.063 6.396a9.473 9.473 0 0 0 6.406 2.387c5.4 0 9.7-4.3 9.7-9.6a10.703 10.703 0 0 0-.126-1.648z"/></svg>