<svg xmlns="http://www.w3.org/2000/svg" viewBox="0 0 42.3 67.703" role="img" class="stardust-icon stardust-icon-zoom"><path fill-rule="evenodd" stroke-linecap="round" stroke-width=".945" d="M21.6 56.403l12.5-18.3c5.081-7.491 7.492-12.684 8.063-17.877a22.986 22.986 0 0 0 .137-2.523A17.062 17.062 0 0 0 30.133 1.242 24.304 24.304 0 0 0 22.3.003a23.551 23.551 0 0 0-9.787 1.948C5.323 5.212 1.199 12.42 1.199 22.443a36.776 36.776 0 0 0 .001.26H13a70.067 70.067 0 0 1 .052-1.368c.118-2.398.351-3.497.948-5.032a7.181 7.181 0 0 1 5.187-4.431 9.74 9.74 0 0 1 2.313-.269c4.599 0 7.899 3.099 7.9 7.398a5.467 5.467 0 0 1 0 .002 11.162 11.162 0 0 1-.092 1.496c-.29 2.167-1.352 4.335-4.331 9.011a261.731 261.731 0 0 1-1.677 2.593L0 67.703h40.5v-11.3H21.6z"/></svg>